# xmcd CD database file
#
# Track frame offsets:
#	182
#	20797
#	65982
#	89217
#	145220
#	160332
#	187727
#	222967
#	245207
#	270585
#	297850
#	312932
#
# Disc length: 4536 seconds
#
# Revision: 0
# Processed by: cddbd v1.4b42PL1 Copyright (c) Steve Scherf et al.
# Submitted via: CdAid 2001.05.15.01
#
DISCID=c111b60c
DTITLE=Mavis Staples - The Voice
DYEAR=1900
DGENRE=
TTITLE0=Blood is thicker than time
TTITLE1=I'll be right there
TTITLE2=Why
TTITLE3=House in order
TTITLE4=All because of you
TTITLE5=A Man called Jesus
TTITLE6=Kain't turn back
TTITLE7=Come home
TTITLE8=You will be moved
TTITLE9=The voice
TTITLE10=The undertaker
TTITLE11=Melody cool
EXTD=
EXTT0=
EXTT1=
EXTT2=
EXTT3=
EXTT4=
EXTT5=
EXTT6=
EXTT7=
EXTT8=
EXTT9=
EXTT10=
EXTT11=
PLAYORDER=
